{"title":"The Woman in Black 2012 DvDScr XviD Feel-Free","uid":7045072,"size":803561785,"categoryP":"video","categoryS":"movies","magnet":"?xt=urn:btih:a6707c7a63e5572c13cda56852636ad4284a1387&amp;dn=The+Woman+in+Black+2012+DvDScr+XviD+Feel-Free&amp;tr=udp%3A%2F%2Ftracker.openbittorrent.com%3A80&amp;tr=udp%3A%2F%2Fopen.demonii.com%3A1337&amp;tr=udp%3A%2F%2Ftracker.coppersurfer.tk%3A6969&amp;tr=udp%3A%2F%2Fexodus.desync.com%3A6969","seeders":1,"leechers":1,"uploader":".BONE.","files":9,"time":1329714130,"description":"Genre:Drama | Horror | Thriller\nLanguage:English &lt;a href=&quot;\nhttp://www.imdb.com/title/tt1596365/&quot; rel=&quot;nofollow&quot; target=&quot;_NEW&quot;&gt;\nhttp://www.imdb.com/title/tt1596365/&lt;/a&gt;\nSource:TONTY Thanks!\nEncoder:Tony\n\nFormat : AVI\nFormat/Info : Audio Video Interleave\nFile size : 765 MiB\nDuration : 1h 28mn\nOverall bit rate : 1 211 Kbps\n\n\nVideo\nID : 0\nFormat : MPEG-4 Visual\nFormat profile : Advanced Simple@L5\nFormat settings, BVOP : 1\nFormat settings, QPel : No\nFormat settings, GMC : No warppoints\nFormat settings, Matrix : Default (H.263)\nCodec ID : XVID\nCodec ID/Hint : XviD\nDuration : 1h 28mn\nBit rate : 1 009 Kbps\nWidth : 720 pixels\nHeight : 304 pixels\nDisplay aspect ratio : 2.35:1\nFrame rate : 25.000 fps\nColor space : YUV\nChroma subsampling : 4:2:0\nBit depth : 8 bits\nScan type : Progressive\nCompression mode : Lossy\nBits/(Pixel*Frame) : 0.184\nStream size : 637 MiB (83%)\nWriting library : XviD 1.2.1 (UTC 2008-12-04)\n\nAudio\nID : 1\nFormat : AC-3\nFormat/Info : Audio Coding 3\nMode extension : CM (complete main)\nCodec ID : 2000\nDuration : 1h 28mn\nBit rate mode : Constant\nBit rate : 192 Kbps\nChannel(s) : 2 channels\nChannel positions : Front: L R\nSampling rate : 48.0 KHz\nBit depth : 16 bits\nCompression mode : Lossy\nStream size : 121 MiB (16%)\nAlignment : Aligned on interleaves\nInterleave, duration : 40 ms (1.00 video frame)\nInterleave, preload duration : 512 ms\n\n\nPlot:\nA young lawyer travels to a remote village where he discovers the vengeful ghost of a scorned woman is terrorizing the locals.\n","torrent":{"xt":"urn:btih:a6707c7a63e5572c13cda56852636ad4284a1387","amp;dn":"The+Woman+in+Black+2012+DvDScr+XviD+Feel-Free","amp;tr":["udp%3A%2F%2Ftracker.openbittorrent.com%3A80","udp%3A%2F%2Fopen.demonii.com%3A1337","udp%3A%2F%2Ftracker.coppersurfer.tk%3A6969","udp%3A%2F%2Fexodus.desync.com%3A6969"],"infoHash":"a6707c7a63e5572c13cda56852636ad4284a1387","infoHashBuffer":{"type":"Buffer","data":[166,112,124,122,99,229,87,44,19,205,165,104,82,99,106,212,40,74,19,135]},"announce":[],"urlList":[]}}